<?xml version="1.0" encoding="UTF-8"?>
<svg id="Layer_2" data-name="Layer 2" xmlns="http://www.w3.org/2000/svg" viewBox="0 0 197.22 223.38">
  <defs>
    <style>
      .cls-1 {
        fill: #f0bb78;
      }

      .cls-2 {
        fill: #131010;
      }

      .cls-3 {
        fill: #543a14;
      }
    </style>
  </defs>
  <g id="Layer_1-2" data-name="Layer 1">
    <g>
      <path class="cls-2" d="M90.44,80.84c-1.89-2.41-6.01-1.2-15.98-4.12-9.97-2.92-7.39-20.11-7.39-20.11,4.47,7.56,8.59,5.16,18.39,9.97,9.8,4.81,4.98,14.26,4.98,14.26Z"/>
      <path class="cls-2" d="M76.22,42.74s-9.09,4.49-12.47,8.44c0,0-3.65-6.73-5.35-14.5-2.21-10.1-.65-15.58,2.86-23.04,0,0,2.44,4.19,8.65,11.8,6.15,7.55,6.31,17.3,6.31,17.3Z"/>
      <path class="cls-2" d="M102.53,55.05c-.57.52-.96.99-1.32,1.43-.23.28-.45.55-.71.8-1.3,1.32-2.92,2.63-4.78,3.98-1.85-1.36-3.47-2.67-4.78-3.98-.25-.25-.47-.52-.71-.8-.37-.44-.75-.9-1.32-1.43,2.47-.65,4.85-1.56,6.8-3.08,1.95,1.51,4.34,2.43,6.81,3.08Z"/>
      <path class="cls-2" d="M101.46,85.2c0,3.05-5.3.88-5.74,5.18-.43-4.3-5.74-2.13-5.74-5.18s5.32-2.86,5.74-2.84c.42-.02,5.74-.22,5.74,2.84Z"/>
      <path class="cls-2" d="M102.53,181.48c-.57.52-.96.99-1.32,1.43-.23.28-.45.55-.71.8-1.3,1.32-2.92,2.63-4.78,3.98-1.85-1.36-3.47-2.67-4.78-3.98-.25-.25-.47-.52-.71-.8-.37-.44-.75-.9-1.32-1.43,2.47-.65,4.85-1.56,6.8-3.08,1.95,1.51,4.34,2.43,6.81,3.08Z"/>
      <path class="cls-2" d="M117.04,76.72c-9.97,2.92-14.09,1.72-15.98,4.12,0,0-4.81-9.45,4.98-14.26,9.8-4.81,13.92-2.4,18.39-9.97,0,0,2.58,17.19-7.39,20.11Z"/>
      <path class="cls-2" d="M133.1,36.68c-1.7,7.77-5.35,14.5-5.35,14.5-3.38-3.95-12.47-8.44-12.47-8.44,0,0,.16-9.75,6.31-17.3,6.21-7.62,8.65-11.8,8.65-11.8,3.51,7.47,5.07,12.94,2.86,23.04Z"/>
      <path class="cls-2" d="M104.81,94.41c-2.89,4.05-8.64,1.19-9.09.96-.45.23-6.2,3.09-9.09-.96,0,0,8.54,1.53,9.09-2.97.56,4.5,9.09,2.97,9.09,2.97Z"/>
      <path class="cls-2" d="M182.96,92.1s-4.64-1.03-7.4-6.01c-2.76-4.98,1.23-9.43,1.23-9.43l14.06-6.14s-11.32-9.03-23.91-3.14c-10.88,5.79-6.77,18.77-10.83,24.31-1.13,1.54-2.6,3.09-4.18,4.53-9.9-19.05-15.96-34.34-17.14-37.4,1.27-2.84,6.68-15.56,7.48-28.24.38-6.01-1.72-12.89-6.07-19.89-3.25-5.22-6.57-8.65-6.71-8.8l-1.86-1.9-.6,2.59c-1.05,4.55-7.83,12.33-12.78,18.02-2.16,2.48-4.02,4.62-5.18,6.2-2.93,4-3.56,8.85-3.67,11.47-4.25-.74-9.37-.75-9.62-.75h-.06c-.25,0-5.37,0-9.62.75-.11-2.62-.73-7.47-3.67-11.47-1.16-1.58-3.02-3.72-5.18-6.2-4.95-5.69-11.73-13.47-12.78-18.02l-.6-2.59-1.86,1.9c-.14.14-3.46,3.58-6.71,8.8-4.35,7-6.45,13.87-6.07,19.89.8,12.68,6.21,25.4,7.48,28.24-1.2,3.11-7.46,18.92-17.69,38.46-3.75-2.33-6.3-3.94-7.07-4.48-3.96-2.77-5.4-6.14-3.69-8.59.86-1.23,2.1-1.61,2.98-1.72,1.2-.14,2.26.17,2.79.54l1.19.83,7.68-10.96-18.58-13.01-6.66,9.51-.66.96.78.86c.14.15,3.29,3.67,1.28,6.55-2.06,2.94-6.34,1.58-6.52,1.52l-.87-.29-.64.66c-.19.19-4.58,4.76-7.79,11.46-4.33,9.04-4.33,17.58,0,24.7l1.87,3.08.78-3.52c1.03-4.64,3.56-12.56,5.92-14.04.31-.19.46-.16.53-.14,1.72.41,9.12,4.21,19.22,9.66-7.24,12.6-14.79,24.02-22.43,33.94l-.62.81.55.86c.12.19,2.14,3.32,6.09,7.9-.47,11.03,5.54,35.6,8.44,47.46l.41,1.68c1.83,7.5,3.52,12.11,5.48,14.94,2.05,2.96,4.41,4.06,7.32,4.79.36.09.82.15,1.41.15,2.56,0,7.51-1.09,17.1-5.2,8.08-3.47,16.18-7.76,20.63-10.93,3.96-2.82,7.73-5.34,11.38-7.78,3-2,5.83-3.89,8.42-5.72,2.59,1.83,5.42,3.72,8.42,5.72,3.65,2.44,7.42,4.95,11.38,7.78,4.45,3.17,12.55,7.46,20.63,10.93,9.59,4.12,14.54,5.2,17.1,5.2.59,0,1.05-.06,1.41-.15,2.91-.74,5.27-1.83,7.32-4.79,1.96-2.83,3.65-7.44,5.48-14.94l.41-1.68c2.9-11.86,8.91-36.43,8.44-47.46,3.95-4.57,5.97-7.71,6.09-7.9l.55-.86-.62-.81c-7.65-9.92-15.19-21.33-22.43-33.94h0s9.44-5.19,9.44-5.19l-.04-.06c.57-.31,1.1-.6,1.59-.87,4.51-2.47,11.35,2.79,16.04-.98,4.69-3.78,8.44-9.85,10.27-17.54l-14.26,5.89ZM141.97,82.64c2.24,4.74,4.82,9.99,7.71,15.55-2.8,2.31-5.56,4.21-7.05,5.19l-4.82,2.97c-3.97,2.44-8.25,5.06-12.64,7.74-2.5-2.63-5-6.57-7.26-11.46-1.08-2.33-1.89-4.41-2.38-5.75,13.29-3.66,22.08-10.27,26.43-14.23ZM122.64,115.63c-.95.58-1.91,1.17-2.87,1.75-.85-3.12-1.59-6.22-2.22-9.05,1.44,2.57,3.15,5.15,5.09,7.3ZM117.49,146.09c.57.08.83.44,1.19,1.03.2.33.4.66.75.92.75.55,1.47.72,1.99.85.45.11.6.15.76.3.14.13.28.4.44.7.29.56.65,1.25,1.38,1.84.75.61,1.49.71,1.97.78.44.06.57.08.86.38.07.07.13.23.22.47.23.59.57,1.49,1.67,2.3.75.55,1.23.7,1.7.82.22.06.32.09.72.45.2.19.34.31.14,1.15-.29,1.2-1.2,3.17-2.94,6.39-2.68,4.97-8.9,8.25-13.9,10.89-1.29.68-2.52,1.33-3.58,1.95-.64.37-1.21.73-1.73,1.07-4.12-.91-8.17-2.19-11.28-4.5,2.48-3.2,2.37-7.21,2.27-11.11-.09-3.44-.19-7,1.3-10.43.31-.72.67-1.41,1.07-2.06.87.56,1.58,1.02,2.12,1.36l1.69,1.76c.5-.48.65-.62,1.03-.96l.21-.19c6.24-5.69,8.91-6.29,9.95-6.14ZM113.31,142.96c.75-.15,1.35-.22,1.75-.26.16-.02.27-.01.33,0,.04.16.03.47-.02.77-.26.08-.54.18-.82.29-.31-.2-.73-.46-1.24-.79ZM91.87,149.52l-.42-.9,4.21-2.69.09.05.09-.05,4.21,2.69-.42.9h-7.76ZM97.26,165.62c-.02,2.42-.3,4.5-1.51,6.21-1.21-1.72-1.49-3.79-1.51-6.21.5,0,1.01.01,1.51.01s1.01,0,1.51-.01ZM83.95,152.24l.21.19c.38.34.53.49,1.03.96l1.69-1.76c.54-.35,1.25-.8,2.12-1.36.4.65.76,1.34,1.07,2.06,1.49,3.43,1.39,6.99,1.3,10.43-.1,3.9-.21,7.91,2.27,11.11-3.11,2.31-7.16,3.59-11.28,4.5-.52-.34-1.09-.7-1.73-1.07-1.06-.62-2.28-1.27-3.58-1.95-5-2.64-11.22-5.92-13.9-10.89-1.74-3.22-2.65-5.2-2.94-6.39-.2-.83-.07-.96.14-1.15.4-.36.5-.39.72-.45.47-.12.95-.28,1.7-.82,1.11-.81,1.45-1.7,1.67-2.3.1-.25.16-.4.22-.47.29-.3.42-.31.86-.38.49-.07,1.22-.17,1.97-.78.73-.59,1.09-1.28,1.38-1.84.16-.3.3-.57.44-.7.15-.15.31-.19.76-.3.52-.12,1.24-.3,1.99-.85.35-.25.55-.59.75-.92.36-.59.62-.95,1.19-1.03,1.03-.15,3.7.45,9.95,6.14ZM76.11,142.69c.06,0,.16-.01.33,0,.4.05,1,.11,1.75.26-.51.33-.93.59-1.24.79-.28-.11-.55-.21-.82-.29-.05-.3-.06-.61-.02-.77ZM82.23,123.8c-2.61-1.59-5.27-3.21-7.93-4.84,2.24-8.14,3.82-16.21,4.56-20.28.28.3.56.61.85.92,1.54,1.68,3.25,3.54,5.47,5.07-.33,2.69-1.38,10.71-2.95,19.13ZM87.91,106.21c1.76.79,3.8,1.35,6.21,1.52v23.32c-2.93-1.79-6.04-3.68-9.25-5.64,1.5-7.87,2.56-15.57,3.03-19.2ZM97.37,131.05v-23.32c2.42-.17,4.46-.73,6.21-1.52.47,3.63,1.53,11.33,3.03,19.2-3.2,1.96-6.31,3.85-9.25,5.64ZM106.32,104.67c2.22-1.53,3.93-3.39,5.47-5.07.29-.31.57-.62.85-.92.74,4.07,2.32,12.14,4.56,20.28-2.66,1.63-5.32,3.25-7.93,4.84-1.57-8.42-2.62-16.44-2.95-19.13ZM52.13,30.41c-.65-10.3,6.99-20.64,10.39-24.69,2.3,5.04,7.91,11.47,12.55,16.8,2.12,2.43,3.94,4.53,5.03,6.01,3.51,4.79,3.11,11.37,3.1,11.44l-.14,2,1.94-.49c4.09-1.03,10.66-1.04,10.72-1.04h.06c.07,0,6.63.01,10.72,1.04l1.94.49-.14-2c0-.06-.41-6.64,3.1-11.44,1.09-1.48,2.92-3.58,5.03-6.01,4.64-5.33,10.24-11.76,12.55-16.8,3.4,4.05,11.04,14.39,10.39,24.69-.85,13.52-7.4,27.62-7.47,27.76l-.18.38.05.42c.02.16,1.92,16.47-6.73,26.45-5.7,6.58-7.29,6.97-8.68,7.32-.95.24-2.03.5-3.7,1.88-1.04.86-2,1.91-3.03,3.03-3.12,3.4-6.65,7.25-13.87,7.25h-.06c-7.22,0-10.75-3.85-13.87-7.25-1.02-1.12-1.99-2.17-3.03-3.03-1.66-1.38-2.74-1.64-3.7-1.88-1.4-.35-2.98-.74-8.68-7.32-8.65-9.98-6.75-26.29-6.73-26.45l.05-.42-.18-.38c-.07-.14-6.61-14.24-7.47-27.76ZM49.53,82.64c4.35,3.96,13.14,10.57,26.43,14.23-.49,1.34-1.3,3.42-2.38,5.75-2.26,4.89-4.76,8.82-7.26,11.46-9.46-5.79-18.41-11.28-24.84-15.26,3.04-5.79,5.73-11.26,8.05-16.18ZM73.95,108.33c-.63,2.84-1.38,5.93-2.22,9.05-.96-.59-1.92-1.17-2.87-1.75,1.94-2.15,3.65-4.73,5.09-7.3ZM34.13,112.23c14.37,7.79,33.3,18.39,49.25,27.4-.69.44-1.33.86-1.93,1.24-1.86-.68-3.4-.92-4.7-1.06-1.56-.17-2.43.45-2.88,1-.61.75-.73,1.7-.69,2.49-1.67.4-2.45,1.68-2.84,2.31-.02.04-.05.08-.07.11-21.51-6.6-34.93-20.08-40.31-26.44,1.4-2.31,2.78-4.66,4.16-7.06ZM22.55,131c4.88,5.94,16.49,18.21,34.67,26.41.02,1.8,1.17,4.32,3.39,8.43,1,1.86,2.39,3.49,3.97,4.94-26.18-9.03-41.63-27.26-46.32-33.5,1.44-2.05,2.87-4.14,4.29-6.28ZM85.72,197.05c-3.66,2.45-7.45,4.98-11.45,7.83-4.3,3.06-12.19,7.24-20.09,10.63-9.87,4.24-15.14,5.29-16.66,4.91-4.35-1.1-7-2.46-10.69-17.61l-.41-1.68c-2.41-9.87-7.75-31.7-8.33-43.53,1.25,1.34,2.64,2.75,4.16,4.21,5.08,4.88,10.59,9.29,16.38,13.09,3.81,2.5,7.75,4.75,11.78,6.72l7.59,3.35-7.53,3.41c-3.67,1.86-6.95,3.86-9.13,5.82l1.94,2.16c5.8-5.22,21.79-11.6,29.32-13.18,1.39-.29,2.88-.56,4.45-.83,1.53-.27,3.11-.55,4.69-.87,1.74,1.27,2.56,2.25,3.36,3.21.38.46.78.93,1.25,1.41,1.94,1.95,4.27,3.88,6.91,5.84-2.34,1.64-4.87,3.33-7.54,5.11ZM88.41,184.06c-.39-.39-.72-.8-1.08-1.22-.56-.67-1.15-1.38-2.01-2.18,3.79-.99,7.45-2.4,10.43-4.73,2.98,2.33,6.64,3.74,10.43,4.73-.87.8-1.46,1.51-2.01,2.18-.36.43-.69.84-1.08,1.22-2,2.02-4.49,4.03-7.34,6.11-2.85-2.08-5.34-4.09-7.34-6.11ZM165.08,201.12l-.41,1.68c-3.69,15.15-6.33,16.51-10.69,17.61-1.52.38-6.79-.67-16.66-4.91-7.9-3.4-15.79-7.57-20.09-10.63-4-2.85-7.79-5.38-11.45-7.83-2.67-1.78-5.2-3.47-7.54-5.11,2.64-1.96,4.97-3.89,6.91-5.84.47-.48.87-.95,1.25-1.41.8-.96,1.62-1.95,3.36-3.21,1.59.32,3.16.6,4.69.87,1.57.28,3.06.54,4.45.83,7.54,1.58,23.52,7.96,29.32,13.18l1.94-2.16c-2.18-1.96-5.46-3.96-9.13-5.82l-7.53-3.41,7.59-3.35c4.04-1.98,7.97-4.22,11.78-6.72,5.8-3.81,11.31-8.21,16.38-13.09,1.52-1.46,2.9-2.87,4.16-4.21-.58,11.82-5.92,33.66-8.33,43.53ZM168.95,131c1.42,2.14,2.85,4.24,4.29,6.28-4.68,6.24-20.14,24.47-46.32,33.5,1.59-1.45,2.97-3.07,3.97-4.94,2.22-4.11,3.37-6.63,3.39-8.43,18.18-8.2,29.78-20.47,34.67-26.41ZM161.53,119.29c-5.38,6.36-18.79,19.84-40.31,26.44-.02-.04-.05-.08-.07-.11-.39-.64-1.17-1.91-2.84-2.31.05-.79-.07-1.74-.69-2.49-.45-.55-1.32-1.17-2.88-1-1.3.14-2.84.39-4.7,1.06-.6-.39-1.25-.8-1.93-1.24,11.18-6.31,23.83-13.41,35.34-19.77l13.91-7.63c1.38,2.4,2.76,4.75,4.16,7.06Z"/>
      <path class="cls-3" d="M64.57,170.78c-26.18-9.03-41.63-27.26-46.32-33.5,1.44-2.05,2.87-4.14,4.29-6.28,4.88,5.94,16.49,18.21,34.67,26.41.02,1.8,1.17,4.32,3.39,8.43,1,1.86,2.39,3.49,3.97,4.94Z"/>
      <path class="cls-2" d="M97.26,165.62c-.02,2.42-.3,4.5-1.51,6.21-1.21-1.72-1.49-3.79-1.51-6.21.5,0,1.01.01,1.51.01s1.01,0,1.51-.01Z"/>
      <path class="cls-3" d="M173.24,137.29c-4.68,6.24-20.14,24.47-46.32,33.5,1.59-1.45,2.97-3.07,3.97-4.94,2.22-4.11,3.37-6.63,3.39-8.43,18.18-8.2,29.78-20.47,34.67-26.41,1.42,2.14,2.85,4.24,4.29,6.28Z"/>
      <path class="cls-3" d="M73.95,108.33c-.63,2.84-1.38,5.93-2.22,9.05-.96-.59-1.92-1.17-2.87-1.75,1.94-2.15,3.65-4.73,5.09-7.3Z"/>
      <path class="cls-3" d="M85.18,104.67c-.33,2.69-1.38,10.71-2.95,19.13-2.61-1.59-5.27-3.21-7.93-4.84,2.24-8.14,3.82-16.21,4.56-20.28.28.3.56.61.85.92,1.54,1.68,3.25,3.54,5.47,5.07Z"/>
      <path class="cls-3" d="M94.13,107.74v23.32c-2.93-1.79-6.04-3.68-9.25-5.64,1.5-7.87,2.56-15.57,3.03-19.2,1.76.79,3.8,1.35,6.21,1.52Z"/>
      <path class="cls-3" d="M106.62,125.42c-3.2,1.96-6.31,3.85-9.25,5.64v-23.32c2.42-.17,4.46-.73,6.21-1.52.47,3.63,1.53,11.33,3.03,19.2Z"/>
      <path class="cls-3" d="M117.19,118.96c-2.66,1.63-5.32,3.25-7.93,4.84-1.57-8.42-2.62-16.44-2.95-19.13,2.22-1.53,3.93-3.39,5.47-5.07.29-.31.57-.62.85-.92.74,4.07,2.32,12.14,4.56,20.28Z"/>
      <path class="cls-3" d="M122.64,115.63c-.95.58-1.91,1.17-2.87,1.75-.85-3.12-1.59-6.22-2.22-9.05,1.44,2.57,3.15,5.15,5.09,7.3Z"/>
      <g>
        <polygon class="cls-1" points="100.05 148.62 99.63 149.52 91.87 149.52 91.45 148.62 95.66 145.93 95.75 145.99 95.84 145.93 100.05 148.62"/>
        <g>
          <g>
            <path class="cls-1" d="M115.37,143.46c-.26.08-.54.18-.82.29-.31-.2-.73-.46-1.24-.79.75-.15,1.35-.22,1.75-.26.16-.02.27-.01.33,0,.04.16.03.47-.02.77Z"/>
            <path class="cls-1" d="M78.19,142.96c-.51.33-.93.59-1.24.79-.28-.11-.55-.21-.82-.29-.05-.3-.06-.61-.02-.77.06,0,.16-.01.33,0,.4.05,1,.11,1.75.26Z"/>
            <g>
              <g>
                <g>
                  <path class="cls-1" d="M95.75,175.92c-2.98,2.33-6.64,3.74-10.43,4.73.87.8,1.46,1.51,2.01,2.18.36.43.69.84,1.08,1.22,2,2.02,4.49,4.03,7.34,6.11,2.85-2.08,5.34-4.09,7.34-6.11.39-.39.72-.8,1.08-1.22.56-.67,1.15-1.38,2.01-2.18-3.79-.99-7.45-2.4-10.43-4.73ZM101.21,182.91c-.23.28-.45.55-.71.8-1.3,1.32-2.92,2.63-4.78,3.98-1.85-1.36-3.47-2.67-4.78-3.98-.25-.25-.47-.52-.71-.8-.37-.44-.75-.9-1.32-1.43,2.47-.65,4.85-1.56,6.8-3.08,1.95,1.51,4.34,2.43,6.81,3.08-.57.52-.96.99-1.32,1.43Z"/>
                  <path class="cls-1" d="M173.41,157.6c-.58,11.82-5.92,33.66-8.33,43.53l-.41,1.68c-3.69,15.15-6.33,16.51-10.69,17.61-1.52.38-6.79-.67-16.66-4.91-7.9-3.4-15.79-7.57-20.09-10.63-4-2.85-7.79-5.38-11.45-7.83-2.67-1.78-5.2-3.47-7.54-5.11,2.64-1.96,4.97-3.89,6.91-5.84.47-.48.87-.95,1.25-1.41.8-.96,1.62-1.95,3.36-3.21,1.59.32,3.16.6,4.69.87,1.57.28,3.06.54,4.45.83,7.54,1.58,23.52,7.96,29.32,13.18l1.94-2.16c-2.18-1.96-5.46-3.96-9.13-5.82l-7.53-3.41,7.59-3.35c4.04-1.98,7.97-4.22,11.78-6.72,5.8-3.81,11.31-8.21,16.38-13.09,1.52-1.46,2.9-2.87,4.16-4.21Z"/>
                  <path class="cls-1" d="M93.26,191.94c-2.34,1.64-4.87,3.33-7.54,5.11-3.66,2.45-7.45,4.98-11.45,7.83-4.3,3.06-12.19,7.24-20.09,10.63-9.87,4.24-15.14,5.29-16.66,4.91-4.35-1.1-7-2.46-10.69-17.61l-.41-1.68c-2.41-9.87-7.75-31.7-8.33-43.53,1.25,1.34,2.64,2.75,4.16,4.21,5.08,4.88,10.59,9.29,16.38,13.09,3.81,2.5,7.75,4.75,11.78,6.72l7.59,3.35-7.53,3.41c-3.67,1.86-6.95,3.86-9.13,5.82l1.94,2.16c5.8-5.22,21.79-11.6,29.32-13.18,1.39-.29,2.88-.56,4.45-.83,1.53-.27,3.11-.55,4.69-.87,1.74,1.27,2.56,2.25,3.36,3.21.38.46.78.93,1.25,1.41,1.94,1.95,4.27,3.88,6.91,5.84Z"/>
                </g>
                <path class="cls-1" d="M93.65,173.88c-3.11,2.31-7.16,3.59-11.28,4.5-.52-.34-1.09-.7-1.73-1.07-1.06-.62-2.28-1.27-3.58-1.95-5-2.64-11.22-5.92-13.9-10.89-1.74-3.22-2.65-5.2-2.94-6.39-.2-.83-.07-.96.14-1.15.4-.36.5-.39.72-.45.47-.12.95-.28,1.7-.82,1.11-.81,1.45-1.7,1.67-2.3.1-.25.16-.4.22-.47.29-.3.42-.31.86-.38.49-.07,1.22-.17,1.97-.78.73-.59,1.09-1.28,1.38-1.84.16-.3.3-.57.44-.7.15-.15.31-.19.76-.3.52-.12,1.24-.3,1.99-.85.35-.25.55-.59.75-.92.36-.59.62-.95,1.19-1.03,1.03-.15,3.7.45,9.95,6.14l.21.19c.38.34.53.49,1.03.96l1.69-1.76c.54-.35,1.25-.8,2.12-1.36.4.65.76,1.34,1.07,2.06,1.49,3.43,1.39,6.99,1.3,10.43-.1,3.9-.21,7.91,2.27,11.11Z"/>
                <path class="cls-1" d="M131.28,158.08c-.29,1.2-1.2,3.17-2.94,6.39-2.68,4.97-8.9,8.25-13.9,10.89-1.29.68-2.52,1.33-3.58,1.95-.64.37-1.21.73-1.73,1.07-4.12-.91-8.17-2.19-11.28-4.5,2.48-3.2,2.37-7.21,2.27-11.11-.09-3.44-.19-7,1.3-10.43.31-.72.67-1.41,1.07-2.06.87.56,1.58,1.02,2.12,1.36l1.69,1.76c.5-.48.65-.62,1.03-.96l.21-.19c6.24-5.69,8.91-6.29,9.95-6.14.57.08.83.44,1.19,1.03.2.33.4.66.75.92.75.55,1.47.72,1.99.85.45.11.6.15.76.3.14.13.28.4.44.7.29.56.65,1.25,1.38,1.84.75.61,1.49.71,1.97.78.44.06.57.08.86.38.07.07.13.23.22.47.23.59.57,1.49,1.67,2.3.75.55,1.23.7,1.7.82.22.06.32.09.72.45.2.19.34.31.14,1.15Z"/>
              </g>
              <path class="cls-1" d="M161.53,119.29c-5.38,6.36-18.79,19.84-40.31,26.44-.02-.04-.05-.08-.07-.11-.39-.64-1.17-1.91-2.84-2.31.05-.79-.07-1.74-.69-2.49-.45-.55-1.32-1.17-2.88-1-1.3.14-2.84.39-4.7,1.06-.6-.39-1.25-.8-1.93-1.24,11.18-6.31,23.83-13.41,35.34-19.77l13.91-7.63c1.38,2.4,2.76,4.75,4.16,7.06Z"/>
              <path class="cls-1" d="M83.38,139.63c-.69.44-1.33.86-1.93,1.24-1.86-.68-3.4-.92-4.7-1.06-1.56-.17-2.43.45-2.88,1-.61.75-.73,1.7-.69,2.49-1.67.4-2.45,1.68-2.84,2.31-.02.04-.05.08-.07.11-21.51-6.6-34.93-20.08-40.31-26.44,1.4-2.31,2.78-4.66,4.16-7.06,14.37,7.79,33.3,18.39,49.25,27.4Z"/>
              <path class="cls-1" d="M149.68,98.19c-2.8,2.31-5.56,4.21-7.05,5.19l-4.82,2.97c-3.97,2.44-8.25,5.06-12.64,7.74-2.5-2.63-5-6.57-7.26-11.46-1.08-2.33-1.89-4.41-2.38-5.75,13.29-3.66,22.08-10.27,26.43-14.23,2.24,4.74,4.82,9.99,7.71,15.55Z"/>
              <path class="cls-1" d="M75.97,96.87c-.49,1.34-1.3,3.42-2.38,5.75-2.26,4.89-4.76,8.82-7.26,11.46-9.46-5.79-18.41-11.28-24.84-15.26,3.04-5.79,5.73-11.26,8.05-16.18,4.35,3.96,13.14,10.57,26.43,14.23Z"/>
            </g>
          </g>
          <path class="cls-1" d="M139.37,30.41c.65-10.3-6.99-20.64-10.39-24.69-2.3,5.04-7.91,11.47-12.55,16.8-2.12,2.43-3.94,4.53-5.03,6.01-3.51,4.79-3.11,11.37-3.1,11.44l.14,2-1.94-.49c-4.09-1.03-10.66-1.04-10.72-1.04h-.06c-.07,0-6.63.01-10.72,1.04l-1.94.49.14-2c0-.06.41-6.64-3.1-11.44-1.09-1.48-2.92-3.58-5.03-6.01-4.64-5.33-10.24-11.76-12.55-16.8-3.4,4.05-11.04,14.39-10.39,24.69.85,13.52,7.4,27.62,7.47,27.76l.18.38-.05.42c-.02.16-1.92,16.47,6.73,26.45,5.7,6.58,7.29,6.97,8.68,7.32.95.24,2.03.5,3.7,1.88,1.04.86,2,1.91,3.03,3.03,3.12,3.4,6.65,7.25,13.87,7.25h.06c7.22,0,10.75-3.85,13.87-7.25,1.02-1.12,1.99-2.17,3.03-3.03,1.66-1.38,2.74-1.64,3.7-1.88,1.4-.35,2.98-.74,8.68-7.32,8.65-9.98,6.75-26.29,6.73-26.45l-.05-.42.18-.38c.07-.14,6.61-14.24,7.47-27.76ZM95.72,51.97c1.95,1.51,4.34,2.43,6.81,3.08-.57.52-.96.99-1.32,1.43-.23.28-.45.55-.71.8-1.3,1.32-2.92,2.63-4.78,3.98-1.85-1.36-3.47-2.67-4.78-3.98-.25-.25-.47-.52-.71-.8-.37-.44-.75-.9-1.32-1.43,2.47-.65,4.85-1.56,6.8-3.08ZM101.46,85.2c0,3.05-5.3.88-5.74,5.18-.43-4.3-5.74-2.13-5.74-5.18s5.32-2.86,5.74-2.84c.42-.02,5.74-.22,5.74,2.84ZM63.75,51.18s-3.65-6.73-5.35-14.5c-2.21-10.1-.65-15.58,2.86-23.04,0,0,2.44,4.19,8.65,11.8,6.15,7.55,6.31,17.3,6.31,17.3,0,0-9.09,4.49-12.47,8.44ZM74.46,76.72c-9.97-2.92-7.39-20.11-7.39-20.11,4.47,7.56,8.59,5.16,18.39,9.97,9.8,4.81,4.98,14.26,4.98,14.26-1.89-2.41-6.01-1.2-15.98-4.12ZM95.72,95.37c-.45.23-6.2,3.09-9.09-.96,0,0,8.54,1.53,9.09-2.97.56,4.5,9.09,2.97,9.09,2.97-2.89,4.05-8.64,1.19-9.09.96ZM117.04,76.72c-9.97,2.92-14.09,1.72-15.98,4.12,0,0-4.81-9.45,4.98-14.26,9.8-4.81,13.92-2.4,18.39-9.97,0,0,2.58,17.19-7.39,20.11ZM127.75,51.18c-3.38-3.95-12.47-8.44-12.47-8.44,0,0,.16-9.75,6.31-17.3,6.21-7.62,8.65-11.8,8.65-11.8,3.51,7.47,5.07,12.94,2.86,23.04-1.7,7.77-5.35,14.5-5.35,14.5Z"/>
        </g>
      </g>
    </g>
  </g>
</svg>